<?xml version="1.0" encoding="utf-8"?>
<!-- Generator: Adobe Illustrator 17.0.0, SVG Export Plug-In . SVG Version: 6.00 Build 0)  -->
<!DOCTYPE svg PUBLIC "-//W3C//DTD SVG 1.1//EN" "http://www.w3.org/Graphics/SVG/1.1/DTD/svg11.dtd">
<svg version="1.1" id="Layer_1" xmlns="http://www.w3.org/2000/svg" xmlns:xlink="http://www.w3.org/1999/xlink" x="0px" y="0px"
	 width="744.156px" height="87.013px" viewBox="0 0 744.156 87.013" enable-background="new 0 0 744.156 87.013"
	 xml:space="preserve">
<g>
	<g>
		<path fill="#00A2CB" d="M47.744,51.301l21.899,1.315c-1.029,9.567-4.565,16.905-10.606,22.013
			c-6.042,5.108-13.465,7.662-22.271,7.662c-10.597,0-19.154-3.507-25.672-10.521c-6.519-7.013-9.777-16.695-9.777-29.046
			c0-12.236,3.087-22.108,9.263-29.618C16.755,5.598,25.368,1.842,36.424,1.842c10.329,0,18.268,2.859,23.814,8.577
			c5.546,5.718,8.681,13.304,9.405,22.757l-22.356,1.201c0-5.222-1.001-8.996-3.002-11.321c-2.001-2.325-4.355-3.488-7.062-3.488
			c-7.547,0-11.321,7.586-11.321,22.757c0,8.5,0.981,14.276,2.945,17.325c1.963,3.05,4.717,4.574,8.262,4.574
			C43.437,64.223,46.982,59.916,47.744,51.301z"/>
		<path fill="#00A2CB" d="M128.426,61.936V81.09H73.708V3.043h23.957v58.893H128.426z"/>
		<path fill="#00A2CB" d="M195.386,3.043v51.688c0,9.797-2.907,16.838-8.72,21.127c-5.813,4.288-13.389,6.433-22.728,6.433
			c-9.834,0-17.735-2.059-23.7-6.176C134.272,72,131.29,65.291,131.29,55.99V3.043h24.358v50.145c0,3.736,0.788,6.461,2.366,8.176
			c1.578,1.716,4.096,2.573,7.556,2.573c2.888,0,5.254-0.619,7.098-1.858c1.844-1.238,2.946-2.639,3.307-4.202
			c0.361-1.562,0.542-4.611,0.542-9.148V3.043H195.386z"/>
		<path fill="#00A2CB" d="M207.022,81.09V3.043h39.624c8.233,0,14.237,2.078,18.011,6.232c3.773,4.155,5.661,8.901,5.661,14.237
			c0,3.888-1.096,7.404-3.288,10.549c-2.192,3.145-5.46,5.309-9.806,6.49c10.101,2.439,15.152,8.5,15.152,18.182
			c0,5.795-1.782,10.969-5.346,15.523c-3.564,4.556-11.178,6.833-22.842,6.833H207.022z M229.092,32.947h11.092
			c2.782,0,4.746-0.705,5.89-2.115c1.144-1.41,1.715-2.916,1.715-4.517c0-4.346-2.669-6.518-8.005-6.518h-10.692V32.947z
			 M229.092,63.709h11.664c2.896,0,5.022-0.715,6.375-2.145c1.353-1.429,2.03-3.039,2.03-4.831c0-1.791-0.658-3.439-1.973-4.945
			s-3.727-2.259-7.233-2.259h-10.864V63.709z"/>
		<path fill="#FFFFFF" d="M302.959,51.301l21.899,1.315c-1.029,9.567-4.565,16.905-10.606,22.013
			c-6.042,5.108-13.465,7.662-22.271,7.662c-10.597,0-19.154-3.507-25.672-10.521c-6.519-7.013-9.777-16.695-9.777-29.046
			c0-12.236,3.087-22.108,9.263-29.618c6.175-7.509,14.789-11.264,25.844-11.264c10.329,0,18.268,2.859,23.814,8.577
			c5.546,5.718,8.681,13.304,9.405,22.757l-22.356,1.201c0-5.222-1.001-8.996-3.002-11.321c-2.001-2.325-4.355-3.488-7.062-3.488
			c-7.547,0-11.321,7.586-11.321,22.757c0,8.5,0.981,14.276,2.945,17.325c1.963,3.05,4.717,4.574,8.262,4.574
			C298.651,64.223,302.196,59.916,302.959,51.301z"/>
		<path fill="#FFFFFF" d="M368.444,81.09l-4.411-15.381h-20.908L338.44,81.09H318.99l24.094-78.047h25.33l24.479,78.047H368.444z
			 M347.199,48.671h12.627l-6.314-22.641L347.199,48.671z"/>
		<path fill="#FFFFFF" d="M440.658,51.873h-25.443V81.09h-23.329V3.043h56.435v18.583h-33.105v12.693h25.443V51.873z"/>
		<path fill="#FFFFFF" d="M509.962,62.451v18.64H451.24V3.043h58.722v18.011H474.74v11.321h28.475v17.326H474.74v12.75H509.962z"/>
		<path fill="#00A2CB" d="M565.974,61.936V81.09h-54.719V3.043h23.958v58.893H565.974z"/>
		<path fill="#00A2CB" d="M597.108,3.043V81.09H573.15V3.043H597.108z"/>
		<path fill="#00A2CB" d="M677.087,3.043L652.868,81.09h-24.415L603.128,3.043h25.247l12.351,42.54
			c0.843,2.516,1.59,4.994,2.241,7.433l14.423-49.973H677.087z"/>
		<path fill="#00A2CB" d="M741.828,62.451v18.64h-58.722V3.043h58.722v18.011h-35.222v11.321h28.475v17.326h-28.475v12.75H741.828z"
			/>
	</g>
</g>
<g>
</g>
<g>
</g>
<g>
</g>
<g>
</g>
<g>
</g>
<g>
</g>
</svg>
